# vtk DataFile Version 3.0
Dislocation network (BCC crystal) exported from OpenDiS
ASCII
DATASET UNSTRUCTURED_GRID
POINTS 106 FLOAT
0.00000000e+00 0.00000000e+00 0.00000000e+00
4.03225806e+03 0.00000000e+00 0.00000000e+00
0.00000000e+00 4.03225806e+03 0.00000000e+00
0.00000000e+00 0.00000000e+00 4.03225806e+03
4.03225806e+03 4.03225806e+03 0.00000000e+00
4.03225806e+03 0.00000000e+00 4.03225806e+03
0.00000000e+00 4.03225806e+03 4.03225806e+03
4.03225806e+03 4.03225806e+03 4.03225806e+03
2.01612903e+03 2.01612903e+03 2.01612903e+03
1.85154707e+03 2.09842001e+03 2.09842001e+03
1.85154707e+03 2.09842001e+03 2.09842001e+03
1.68696511e+03 2.18071099e+03 2.18071099e+03
1.68696511e+03 2.18071099e+03 2.18071099e+03
1.52238315e+03 2.26300197e+03 2.26300197e+03
1.52238315e+03 2.26300197e+03 2.26300197e+03
1.35780118e+03 2.34529296e+03 2.34529296e+03
1.35780118e+03 2.34529296e+03 2.34529296e+03
1.19321922e+03 2.42758394e+03 2.42758394e+03
1.19321922e+03 2.42758394e+03 2.42758394e+03
1.02863726e+03 2.50987492e+03 2.50987492e+03
1.02863726e+03 2.50987492e+03 2.50987492e+03
8.64055300e+02 2.59216590e+03 2.59216590e+03
8.64055300e+02 2.59216590e+03 2.59216590e+03
6.99473338e+02 2.67445688e+03 2.67445688e+03
6.99473338e+02 2.67445688e+03 2.67445688e+03
5.34891376e+02 2.75674786e+03 2.75674786e+03
5.34891376e+02 2.75674786e+03 2.75674786e+03
3.70309414e+02 2.83903884e+03 2.83903884e+03
3.70309414e+02 2.83903884e+03 2.83903884e+03
2.05727452e+02 2.92132982e+03 2.92132982e+03
2.05727452e+02 2.92132982e+03 2.92132982e+03
4.11454905e+01 3.00362080e+03 3.00362080e+03
4.11454905e+01 3.00362080e+03 3.00362080e+03
-1.23436471e+02 3.08591178e+03 3.08591178e+03
3.90882159e+03 3.08591178e+03 3.08591178e+03
3.74423963e+03 3.16820276e+03 3.16820276e+03
3.74423963e+03 3.16820276e+03 3.16820276e+03
3.57965767e+03 3.25049375e+03 3.25049375e+03
3.57965767e+03 3.25049375e+03 3.25049375e+03
3.41507571e+03 3.33278473e+03 3.33278473e+03
3.41507571e+03 3.33278473e+03 3.33278473e+03
3.25049375e+03 3.41507571e+03 3.41507571e+03
3.25049375e+03 3.41507571e+03 3.41507571e+03
3.08591178e+03 3.49736669e+03 3.49736669e+03
3.08591178e+03 3.49736669e+03 3.49736669e+03
2.92132982e+03 3.57965767e+03 3.57965767e+03
2.92132982e+03 3.57965767e+03 3.57965767e+03
2.75674786e+03 3.66194865e+03 3.66194865e+03
2.75674786e+03 3.66194865e+03 3.66194865e+03
2.59216590e+03 3.74423963e+03 3.74423963e+03
2.59216590e+03 3.74423963e+03 3.74423963e+03
2.42758394e+03 3.82653061e+03 3.82653061e+03
2.42758394e+03 3.82653061e+03 3.82653061e+03
2.26300197e+03 3.90882159e+03 3.90882159e+03
2.26300197e+03 3.90882159e+03 3.90882159e+03
2.09842001e+03 3.99111257e+03 3.99111257e+03
2.09842001e+03 3.99111257e+03 3.99111257e+03
1.93383805e+03 4.07340355e+03 4.07340355e+03
1.93383805e+03 4.11454905e+01 4.11454905e+01
1.76925609e+03 1.23436471e+02 1.23436471e+02
1.76925609e+03 1.23436471e+02 1.23436471e+02
1.60467413e+03 2.05727452e+02 2.05727452e+02
1.60467413e+03 2.05727452e+02 2.05727452e+02
1.44009217e+03 2.88018433e+02 2.88018433e+02
1.44009217e+03 2.88018433e+02 2.88018433e+02
1.27551020e+03 3.70309414e+02 3.70309414e+02
1.27551020e+03 3.70309414e+02 3.70309414e+02
1.11092824e+03 4.52600395e+02 4.52600395e+02
1.11092824e+03 4.52600395e+02 4.52600395e+02
9.46346280e+02 5.34891376e+02 5.34891376e+02
9.46346280e+02 5.34891376e+02 5.34891376e+02
7.81764319e+02 6.17182357e+02 6.17182357e+02
7.81764319e+02 6.17182357e+02 6.17182357e+02
6.17182357e+02 6.99473338e+02 6.99473338e+02
6.17182357e+02 6.99473338e+02 6.99473338e+02
4.52600395e+02 7.81764319e+02 7.81764319e+02
4.52600395e+02 7.81764319e+02 7.81764319e+02
2.88018433e+02 8.64055300e+02 8.64055300e+02
2.88018433e+02 8.64055300e+02 8.64055300e+02
1.23436471e+02 9.46346280e+02 9.46346280e+02
1.23436471e+02 9.46346280e+02 9.46346280e+02
-4.11454905e+01 1.02863726e+03 1.02863726e+03
3.99111257e+03 1.02863726e+03 1.02863726e+03
3.82653061e+03 1.11092824e+03 1.11092824e+03
3.82653061e+03 1.11092824e+03 1.11092824e+03
3.66194865e+03 1.19321922e+03 1.19321922e+03
3.66194865e+03 1.19321922e+03 1.19321922e+03
3.49736669e+03 1.27551020e+03 1.27551020e+03
3.49736669e+03 1.27551020e+03 1.27551020e+03
3.33278473e+03 1.35780118e+03 1.35780118e+03
3.33278473e+03 1.35780118e+03 1.35780118e+03
3.16820276e+03 1.44009217e+03 1.44009217e+03
3.16820276e+03 1.44009217e+03 1.44009217e+03
3.00362080e+03 1.52238315e+03 1.52238315e+03
3.00362080e+03 1.52238315e+03 1.52238315e+03
2.83903884e+03 1.60467413e+03 1.60467413e+03
2.83903884e+03 1.60467413e+03 1.60467413e+03
2.67445688e+03 1.68696511e+03 1.68696511e+03
2.67445688e+03 1.68696511e+03 1.68696511e+03
2.50987492e+03 1.76925609e+03 1.76925609e+03
2.50987492e+03 1.76925609e+03 1.76925609e+03
2.34529296e+03 1.85154707e+03 1.85154707e+03
2.34529296e+03 1.85154707e+03 1.85154707e+03
2.18071099e+03 1.93383805e+03 1.93383805e+03
2.18071099e+03 1.93383805e+03 1.93383805e+03
2.01612903e+03 2.01612903e+03 2.01612903e+03
CELLS 50 156
8 0 1 4 2 3 5 7 6
2 8 9
2 10 11
2 12 13
2 14 15
2 16 17
2 18 19
2 20 21
2 22 23
2 24 25
2 26 27
2 28 29
2 30 31
2 32 33
2 34 35
2 36 37
2 38 39
2 40 41
2 42 43
2 44 45
2 46 47
2 48 49
2 50 51
2 52 53
2 54 55
2 56 57
2 58 59
2 60 61
2 62 63
2 64 65
2 66 67
2 68 69
2 70 71
2 72 73
2 74 75
2 76 77
2 78 79
2 80 81
2 82 83
2 84 85
2 86 87
2 88 89
2 90 91
2 92 93
2 94 95
2 96 97
2 98 99
2 100 101
2 102 103
2 104 105
CELL_TYPES 50
12
4
4
4
4
4
4
4
4
4
4
4
4
4
4
4
4
4
4
4
4
4
4
4
4
4
4
4
4
4
4
4
4
4
4
4
4
4
4
4
4
4
4
4
4
4
4
4
4
4
CELL_DATA 50
SCALARS SlipSystemID int 1
LOOKUP_TABLE default
0
2
2
2
2
2
2
2
2
2
2
2
2
2
2
2
2
2
2
2
2
2
2
2
2
2
2
2
2
2
2
2
2
2
2
2
2
2
2
2
2
2
2
2
2
2
2
2
2
2
SCALARS DislocationType int 1
LOOKUP_TABLE default
0
3
3
3
3
3
3
3
3
3
3
3
3
3
3
3
3
3
3
3
3
3
3
3
3
3
3
3
3
3
3
3
3
3
3
3
3
3
3
3
3
3
3
3
3
3
3
3
3
3
SCALARS CharacterAngle float 1
LOOKUP_TABLE default
0.0
90.000000
90.000000
90.000000
90.000000
90.000000
90.000000
90.000000
90.000000
90.000000
90.000000
90.000000
90.000000
90.000000
90.000000
90.000000
90.000000
90.000000
90.000000
90.000000
90.000000
90.000000
90.000000
90.000000
90.000000
90.000000
90.000000
90.000000
90.000000
90.000000
90.000000
90.000000
90.000000
90.000000
90.000000
90.000000
90.000000
90.000000
90.000000
90.000000
90.000000
90.000000
90.000000
90.000000
90.000000
90.000000
90.000000
90.000000
90.000000
90.000000
SCALARS SegmentLength float 1
LOOKUP_TABLE default
0.0
2.015709e+02
2.015709e+02
2.015709e+02
2.015709e+02
2.015709e+02
2.015709e+02
2.015709e+02
2.015709e+02
2.015709e+02
2.015709e+02
2.015709e+02
2.015709e+02
2.015709e+02
2.015709e+02
2.015709e+02
2.015709e+02
2.015709e+02
2.015709e+02
2.015709e+02
2.015709e+02
2.015709e+02
2.015709e+02
2.015709e+02
2.015709e+02
2.015709e+02
2.015709e+02
2.015709e+02
2.015709e+02
2.015709e+02
2.015709e+02
2.015709e+02
2.015709e+02
2.015709e+02
2.015709e+02
2.015709e+02
2.015709e+02
2.015709e+02
2.015709e+02
2.015709e+02
2.015709e+02
2.015709e+02
2.015709e+02
2.015709e+02
2.015709e+02
2.015709e+02
2.015709e+02
2.015709e+02
2.015709e+02
2.015709e+02
VECTORS Burgers FLOAT
0.0 0.0 0.0
5.77350269e-01 5.77350269e-01 5.77350269e-01
5.77350269e-01 5.77350269e-01 5.77350269e-01
5.77350269e-01 5.77350269e-01 5.77350269e-01
5.77350269e-01 5.77350269e-01 5.77350269e-01
5.77350269e-01 5.77350269e-01 5.77350269e-01
5.77350269e-01 5.77350269e-01 5.77350269e-01
5.77350269e-01 5.77350269e-01 5.77350269e-01
5.77350269e-01 5.77350269e-01 5.77350269e-01
5.77350269e-01 5.77350269e-01 5.77350269e-01
5.77350269e-01 5.77350269e-01 5.77350269e-01
5.77350269e-01 5.77350269e-01 5.77350269e-01
5.77350269e-01 5.77350269e-01 5.77350269e-01
5.77350269e-01 5.77350269e-01 5.77350269e-01
5.77350269e-01 5.77350269e-01 5.77350269e-01
5.77350269e-01 5.77350269e-01 5.77350269e-01
5.77350269e-01 5.77350269e-01 5.77350269e-01
5.77350269e-01 5.77350269e-01 5.77350269e-01
5.77350269e-01 5.77350269e-01 5.77350269e-01
5.77350269e-01 5.77350269e-01 5.77350269e-01
5.77350269e-01 5.77350269e-01 5.77350269e-01
5.77350269e-01 5.77350269e-01 5.77350269e-01
5.77350269e-01 5.77350269e-01 5.77350269e-01
5.77350269e-01 5.77350269e-01 5.77350269e-01
5.77350269e-01 5.77350269e-01 5.77350269e-01
5.77350269e-01 5.77350269e-01 5.77350269e-01
5.77350269e-01 5.77350269e-01 5.77350269e-01
5.77350269e-01 5.77350269e-01 5.77350269e-01
5.77350269e-01 5.77350269e-01 5.77350269e-01
5.77350269e-01 5.77350269e-01 5.77350269e-01
5.77350269e-01 5.77350269e-01 5.77350269e-01
5.77350269e-01 5.77350269e-01 5.77350269e-01
5.77350269e-01 5.77350269e-01 5.77350269e-01
5.77350269e-01 5.77350269e-01 5.77350269e-01
5.77350269e-01 5.77350269e-01 5.77350269e-01
5.77350269e-01 5.77350269e-01 5.77350269e-01
5.77350269e-01 5.77350269e-01 5.77350269e-01
5.77350269e-01 5.77350269e-01 5.77350269e-01
5.77350269e-01 5.77350269e-01 5.77350269e-01
5.77350269e-01 5.77350269e-01 5.77350269e-01
5.77350269e-01 5.77350269e-01 5.77350269e-01
5.77350269e-01 5.77350269e-01 5.77350269e-01
5.77350269e-01 5.77350269e-01 5.77350269e-01
5.77350269e-01 5.77350269e-01 5.77350269e-01
5.77350269e-01 5.77350269e-01 5.77350269e-01
5.77350269e-01 5.77350269e-01 5.77350269e-01
5.77350269e-01 5.77350269e-01 5.77350269e-01
5.77350269e-01 5.77350269e-01 5.77350269e-01
5.77350269e-01 5.77350269e-01 5.77350269e-01
5.77350269e-01 5.77350269e-01 5.77350269e-01
VECTORS Planes FLOAT
0.0 0.0 0.0
0.00000000e+00 -7.07106781e-01 7.07106781e-01
0.00000000e+00 -7.07106781e-01 7.07106781e-01
0.00000000e+00 -7.07106781e-01 7.07106781e-01
0.00000000e+00 -7.07106781e-01 7.07106781e-01
0.00000000e+00 -7.07106781e-01 7.07106781e-01
0.00000000e+00 -7.07106781e-01 7.07106781e-01
0.00000000e+00 -7.07106781e-01 7.07106781e-01
0.00000000e+00 -7.07106781e-01 7.07106781e-01
0.00000000e+00 -7.07106781e-01 7.07106781e-01
0.00000000e+00 -7.07106781e-01 7.07106781e-01
0.00000000e+00 -7.07106781e-01 7.07106781e-01
0.00000000e+00 -7.07106781e-01 7.07106781e-01
0.00000000e+00 -7.07106781e-01 7.07106781e-01
0.00000000e+00 -7.07106781e-01 7.07106781e-01
0.00000000e+00 -7.07106781e-01 7.07106781e-01
0.00000000e+00 -7.07106781e-01 7.07106781e-01
0.00000000e+00 -7.07106781e-01 7.07106781e-01
0.00000000e+00 -7.07106781e-01 7.07106781e-01
0.00000000e+00 -7.07106781e-01 7.07106781e-01
0.00000000e+00 -7.07106781e-01 7.07106781e-01
0.00000000e+00 -7.07106781e-01 7.07106781e-01
0.00000000e+00 -7.07106781e-01 7.07106781e-01
0.00000000e+00 -7.07106781e-01 7.07106781e-01
0.00000000e+00 -7.07106781e-01 7.07106781e-01
0.00000000e+00 -7.07106781e-01 7.07106781e-01
0.00000000e+00 -7.07106781e-01 7.07106781e-01
0.00000000e+00 -7.07106781e-01 7.07106781e-01
0.00000000e+00 -7.07106781e-01 7.07106781e-01
0.00000000e+00 -7.07106781e-01 7.07106781e-01
0.00000000e+00 -7.07106781e-01 7.07106781e-01
0.00000000e+00 -7.07106781e-01 7.07106781e-01
0.00000000e+00 -7.07106781e-01 7.07106781e-01
0.00000000e+00 -7.07106781e-01 7.07106781e-01
0.00000000e+00 -7.07106781e-01 7.07106781e-01
0.00000000e+00 -7.07106781e-01 7.07106781e-01
0.00000000e+00 -7.07106781e-01 7.07106781e-01
0.00000000e+00 -7.07106781e-01 7.07106781e-01
0.00000000e+00 -7.07106781e-01 7.07106781e-01
0.00000000e+00 -7.07106781e-01 7.07106781e-01
0.00000000e+00 -7.07106781e-01 7.07106781e-01
0.00000000e+00 -7.07106781e-01 7.07106781e-01
0.00000000e+00 -7.07106781e-01 7.07106781e-01
0.00000000e+00 -7.07106781e-01 7.07106781e-01
0.00000000e+00 -7.07106781e-01 7.07106781e-01
0.00000000e+00 -7.07106781e-01 7.07106781e-01
0.00000000e+00 -7.07106781e-01 7.07106781e-01
0.00000000e+00 -7.07106781e-01 7.07106781e-01
0.00000000e+00 -7.07106781e-01 7.07106781e-01
0.00000000e+00 -7.07106781e-01 7.07106781e-01
VECTORS LineDirection FLOAT
0.0 0.0 0.0
-8.16496581e-01 4.08248290e-01 4.08248290e-01
-8.16496581e-01 4.08248290e-01 4.08248290e-01
-8.16496581e-01 4.08248290e-01 4.08248290e-01
-8.16496581e-01 4.08248290e-01 4.08248290e-01
-8.16496581e-01 4.08248290e-01 4.08248290e-01
-8.16496581e-01 4.08248290e-01 4.08248290e-01
-8.16496581e-01 4.08248290e-01 4.08248290e-01
-8.16496581e-01 4.08248290e-01 4.08248290e-01
-8.16496581e-01 4.08248290e-01 4.08248290e-01
-8.16496581e-01 4.08248290e-01 4.08248290e-01
-8.16496581e-01 4.08248290e-01 4.08248290e-01
-8.16496581e-01 4.08248290e-01 4.08248290e-01
-8.16496581e-01 4.08248290e-01 4.08248290e-01
-8.16496581e-01 4.08248290e-01 4.08248290e-01
-8.16496581e-01 4.08248290e-01 4.08248290e-01
-8.16496581e-01 4.08248290e-01 4.08248290e-01
-8.16496581e-01 4.08248290e-01 4.08248290e-01
-8.16496581e-01 4.08248290e-01 4.08248290e-01
-8.16496581e-01 4.08248290e-01 4.08248290e-01
-8.16496581e-01 4.08248290e-01 4.08248290e-01
-8.16496581e-01 4.08248290e-01 4.08248290e-01
-8.16496581e-01 4.08248290e-01 4.08248290e-01
-8.16496581e-01 4.08248290e-01 4.08248290e-01
-8.16496581e-01 4.08248290e-01 4.08248290e-01
-8.16496581e-01 4.08248290e-01 4.08248290e-01
-8.16496581e-01 4.08248290e-01 4.08248290e-01
-8.16496581e-01 4.08248290e-01 4.08248290e-01
-8.16496581e-01 4.08248290e-01 4.08248290e-01
-8.16496581e-01 4.08248290e-01 4.08248290e-01
-8.16496581e-01 4.08248290e-01 4.08248290e-01
-8.16496581e-01 4.08248290e-01 4.08248290e-01
-8.16496581e-01 4.08248290e-01 4.08248290e-01
-8.16496581e-01 4.08248290e-01 4.08248290e-01
-8.16496581e-01 4.08248290e-01 4.08248290e-01
-8.16496581e-01 4.08248290e-01 4.08248290e-01
-8.16496581e-01 4.08248290e-01 4.08248290e-01
-8.16496581e-01 4.08248290e-01 4.08248290e-01
-8.16496581e-01 4.08248290e-01 4.08248290e-01
-8.16496581e-01 4.08248290e-01 4.08248290e-01
-8.16496581e-01 4.08248290e-01 4.08248290e-01
-8.16496581e-01 4.08248290e-01 4.08248290e-01
-8.16496581e-01 4.08248290e-01 4.08248290e-01
-8.16496581e-01 4.08248290e-01 4.08248290e-01
-8.16496581e-01 4.08248290e-01 4.08248290e-01
-8.16496581e-01 4.08248290e-01 4.08248290e-01
-8.16496581e-01 4.08248290e-01 4.08248290e-01
-8.16496581e-01 4.08248290e-01 4.08248290e-01
-8.16496581e-01 4.08248290e-01 4.08248290e-01
-8.16496581e-01 4.08248290e-01 4.08248290e-01

POINT_DATA 106
SCALARS NodeDegree int 1
LOOKUP_TABLE default
0
0
0
0
0
0
0
0
2
2
2
2
2
2
2
2
2
2
2
2
2
2
2
2
2
2
2
2
2
2
2
2
2
2
2
2
2
2
2
2
2
2
2
2
2
2
2
2
2
2
2
2
2
2
2
2
2
2
2
2
2
2
2
2
2
2
2
2
2
2
2
2
2
2
2
2
2
2
2
2
2
2
2
2
2
2
2
2
2
2
2
2
2
2
2
2
2
2
2
2
2
2
2
2
2
2

SCALARS Constraint int 1
LOOKUP_TABLE default
0
0
0
0
0
0
0
0
0
0
0
0
0
0
0
0
0
0
0
0
0
0
0
0
0
0
0
0
0
0
0
0
0
0
0
0
0
0
0
0
0
0
0
0
0
0
0
0
0
0
0
0
0
0
0
0
0
0
0
0
0
0
0
0
0
0
0
0
0
0
0
0
0
0
0
0
0
0
0
0
0
0
0
0
0
0
0
0
0
0
0
0
0
0
0
0
0
0
0
0
0
0
0
0
0
0

SCALARS NodeTag_Domain int 1
LOOKUP_TABLE default
-1
-1
-1
-1
-1
-1
-1
-1
0
0
0
0
0
0
0
0
0
0
0
0
0
0
0
0
0
0
0
0
0
0
0
0
0
0
0
0
0
0
0
0
0
0
0
0
0
0
0
0
0
0
0
0
0
0
0
0
0
0
0
0
0
0
0
0
0
0
0
0
0
0
0
0
0
0
0
0
0
0
0
0
0
0
0
0
0
0
0
0
0
0
0
0
0
0
0
0
0
0
0
0
0
0
0
0
0
0

SCALARS NodeTag_Index int 1
LOOKUP_TABLE default
-1
-1
-1
-1
-1
-1
-1
-1
0
1
1
2
2
3
3
4
4
5
5
6
6
7
7
8
8
9
9
10
10
11
11
12
12
13
13
14
14
15
15
16
16
17
17
18
18
19
19
20
20
21
21
22
22
23
23
24
24
25
25
26
26
27
27
28
28
29
29
30
30
31
31
32
32
33
33
34
34
35
35
36
36
37
37
38
38
39
39
40
40
41
41
42
42
43
43
44
44
45
45
46
46
47
47
48
48
0
